<?xml version="1.0" encoding="UTF-8" standalone="no" ?>
<!DOCTYPE svg PUBLIC "-//W3C//DTD SVG 1.1//EN" "http://www.w3.org/Graphics/SVG/1.1/DTD/svg11.dtd">
<svg xmlns="http://www.w3.org/2000/svg" xmlns:xlink="http://www.w3.org/1999/xlink" version="1.1" width="500" height="500" viewBox="0 0 500 500" xml:space="preserve">
<desc>Created with Fabric.js 4.6.0</desc>
<defs>
</defs>
<g transform="matrix(1 0 0 1 175.43 93.27)" id="pyI3Ufjit0cNVwbJU1JeM"  >
<path style="stroke: rgb(197,189,84); stroke-width: 0; stroke-dasharray: none; stroke-linecap: butt; stroke-dashoffset: 0; stroke-linejoin: miter; stroke-miterlimit: 4; fill: rgb(247,84,84); fill-rule: nonzero; opacity: 1;" vector-effect="non-scaling-stroke"  transform=" translate(-74.56, -74.56)" d="M 74.56487 0 C 115.72468 0 149.12974 33.40506 149.12974 74.56487 C 149.12974 115.72468 115.72468 149.12974 74.56487 149.12974 C 33.40506 149.12974 0 115.72468 0 74.56487 C 0 33.40506 33.40506 0 74.56487 0 z" stroke-linecap="round" />
</g>
<g transform="matrix(1 0 0 1 175.43 252.49)" id="kUCRwqe0WSnB3sXNsc-zu"  >
<path style="stroke: rgb(197,189,84); stroke-width: 0; stroke-dasharray: none; stroke-linecap: butt; stroke-dashoffset: 0; stroke-linejoin: miter; stroke-miterlimit: 4; fill: rgb(255,85,164); fill-rule: nonzero; opacity: 1;" vector-effect="non-scaling-stroke"  transform=" translate(-74.56, -74.56)" d="M 74.56487 0 C 115.72468 0 149.12974 33.40506 149.12974 74.56487 C 149.12974 115.72468 115.72468 149.12974 74.56487 149.12974 C 33.40506 149.12974 0 115.72468 0 74.56487 C 0 33.40506 33.40506 0 74.56487 0 z" stroke-linecap="round" />
</g>
<g transform="matrix(1 0 0 1 175.44 415.69)" id="gkQLUuVTp9EV6bGtKQ-ln"  >
<path style="stroke: rgb(197,189,84); stroke-width: 0; stroke-dasharray: none; stroke-linecap: butt; stroke-dashoffset: 0; stroke-linejoin: miter; stroke-miterlimit: 4; fill: rgb(84,191,247); fill-rule: nonzero; opacity: 1;" vector-effect="non-scaling-stroke"  transform=" translate(-74.56, -74.56)" d="M 74.56487 0 C 115.72468 0 149.12974 33.40506 149.12974 74.56487 C 149.12974 115.72468 115.72468 149.12974 74.56487 149.12974 C 33.40506 149.12974 0 115.72468 0 74.56487 C 0 33.40506 33.40506 0 74.56487 0 z" stroke-linecap="round" />
</g>
<g transform="matrix(2.17 0 0 2.17 250 415.69)" id="kU_0-LqwhyWG_ByV14unp"  >
<path style="stroke: rgb(149,206,162); stroke-width: 0; stroke-dasharray: none; stroke-linecap: butt; stroke-dashoffset: 0; stroke-linejoin: miter; stroke-miterlimit: 4; fill: rgb(84,191,247); fill-rule: nonzero; opacity: 1;" vector-effect="non-scaling-stroke"  transform=" translate(0, 0)" d="M -34.41456 -34.41456 L 34.41455 -34.41456 L 34.41455 34.41455 L -34.41456 34.41455 z" stroke-linecap="round" />
</g>
<g transform="matrix(1 0 0 1 324.57 415.69)" id="b_8xt1xnTyxdoGvEp7X6g"  >
<path style="stroke: rgb(197,189,84); stroke-width: 0; stroke-dasharray: none; stroke-linecap: butt; stroke-dashoffset: 0; stroke-linejoin: miter; stroke-miterlimit: 4; fill: rgb(84,191,247); fill-rule: nonzero; opacity: 1;" vector-effect="non-scaling-stroke"  transform=" translate(-74.56, -74.56)" d="M 74.56487 0 C 115.72468 0 149.12974 33.40506 149.12974 74.56487 C 149.12974 115.72468 115.72468 149.12974 74.56487 149.12974 C 33.40506 149.12974 0 115.72468 0 74.56487 C 0 33.40506 33.40506 0 74.56487 0 z" stroke-linecap="round" />
</g>
</svg>